<mxfile host="app.diagrams.net" modified="2023-10-17T10:22:12.737Z" agent="Mozilla/5.0 (Windows NT 10.0; Win64; x64) AppleWebKit/537.36 (KHTML, like Gecko) Chrome/116.0.0.0 Safari/537.36 OPR/102.0.0.0" etag="hWG1AxR8kE3V1NRViGR6" version="22.0.4" type="github">
  <diagram name="Page-1" id="0whdH7ljbWaGtrnMSD9N">
    <mxGraphModel dx="996" dy="621" grid="1" gridSize="10" guides="1" tooltips="1" connect="1" arrows="1" fold="1" page="1" pageScale="1" pageWidth="1100" pageHeight="850" math="0" shadow="0">
      <root>
        <mxCell id="0" />
        <mxCell id="1" parent="0" />
        <mxCell id="JFrzfRkV05_USLqRkSh5-33" style="edgeStyle=orthogonalEdgeStyle;rounded=0;orthogonalLoop=1;jettySize=auto;html=1;entryX=0;entryY=0.5;entryDx=0;entryDy=0;exitX=1;exitY=0.5;exitDx=0;exitDy=0;" parent="1" source="JFrzfRkV05_USLqRkSh5-28" target="JFrzfRkV05_USLqRkSh5-31" edge="1">
          <mxGeometry relative="1" as="geometry" />
        </mxCell>
        <mxCell id="OPV_PR6AY8vFrdX1OH_D-2" style="edgeStyle=orthogonalEdgeStyle;rounded=0;orthogonalLoop=1;jettySize=auto;html=1;entryX=0;entryY=0.5;entryDx=0;entryDy=0;" edge="1" parent="1" source="JFrzfRkV05_USLqRkSh5-28" target="OPV_PR6AY8vFrdX1OH_D-1">
          <mxGeometry relative="1" as="geometry">
            <Array as="points">
              <mxPoint x="390" y="390" />
            </Array>
          </mxGeometry>
        </mxCell>
        <mxCell id="JFrzfRkV05_USLqRkSh5-28" value="Resource configuration" style="rounded=1;whiteSpace=wrap;html=1;fillColor=#d5e8d4;strokeColor=#82b366;" parent="1" vertex="1">
          <mxGeometry x="340" y="320" width="100" height="40" as="geometry" />
        </mxCell>
        <mxCell id="JFrzfRkV05_USLqRkSh5-52" style="edgeStyle=orthogonalEdgeStyle;rounded=0;orthogonalLoop=1;jettySize=auto;html=1;entryX=0.5;entryY=1;entryDx=0;entryDy=0;" parent="1" source="JFrzfRkV05_USLqRkSh5-29" target="JFrzfRkV05_USLqRkSh5-48" edge="1">
          <mxGeometry relative="1" as="geometry" />
        </mxCell>
        <mxCell id="JFrzfRkV05_USLqRkSh5-29" value="ghw" style="rounded=1;whiteSpace=wrap;html=1;fillColor=#d5e8d4;strokeColor=#82b366;" parent="1" vertex="1">
          <mxGeometry x="485" y="260" width="60" height="30" as="geometry" />
        </mxCell>
        <mxCell id="JFrzfRkV05_USLqRkSh5-32" value="" style="edgeStyle=orthogonalEdgeStyle;rounded=0;orthogonalLoop=1;jettySize=auto;html=1;" parent="1" source="JFrzfRkV05_USLqRkSh5-31" target="JFrzfRkV05_USLqRkSh5-29" edge="1">
          <mxGeometry relative="1" as="geometry" />
        </mxCell>
        <mxCell id="JFrzfRkV05_USLqRkSh5-31" value="/sys/bus/pci" style="rounded=1;whiteSpace=wrap;html=1;fillColor=#fff2cc;strokeColor=#d6b656;" parent="1" vertex="1">
          <mxGeometry x="470" y="320" width="90" height="40" as="geometry" />
        </mxCell>
        <mxCell id="JFrzfRkV05_USLqRkSh5-37" style="edgeStyle=orthogonalEdgeStyle;rounded=0;orthogonalLoop=1;jettySize=auto;html=1;entryX=0;entryY=0.5;entryDx=0;entryDy=0;" parent="1" source="JFrzfRkV05_USLqRkSh5-35" target="JFrzfRkV05_USLqRkSh5-36" edge="1">
          <mxGeometry relative="1" as="geometry" />
        </mxCell>
        <mxCell id="JFrzfRkV05_USLqRkSh5-35" value="Network attachment configuration" style="rounded=1;whiteSpace=wrap;html=1;fillColor=#d5e8d4;strokeColor=#82b366;" parent="1" vertex="1">
          <mxGeometry x="330" y="420" width="120" height="40" as="geometry" />
        </mxCell>
        <mxCell id="JFrzfRkV05_USLqRkSh5-39" style="edgeStyle=orthogonalEdgeStyle;rounded=0;orthogonalLoop=1;jettySize=auto;html=1;entryX=0;entryY=0.5;entryDx=0;entryDy=0;" parent="1" source="JFrzfRkV05_USLqRkSh5-36" target="JFrzfRkV05_USLqRkSh5-38" edge="1">
          <mxGeometry relative="1" as="geometry" />
        </mxCell>
        <mxCell id="JFrzfRkV05_USLqRkSh5-51" style="edgeStyle=orthogonalEdgeStyle;rounded=0;orthogonalLoop=1;jettySize=auto;html=1;entryX=0.5;entryY=1;entryDx=0;entryDy=0;" parent="1" source="JFrzfRkV05_USLqRkSh5-36" target="JFrzfRkV05_USLqRkSh5-50" edge="1">
          <mxGeometry relative="1" as="geometry" />
        </mxCell>
        <mxCell id="JFrzfRkV05_USLqRkSh5-36" value="/etc/cni/net.d/" style="rounded=1;whiteSpace=wrap;html=1;fillColor=#fff2cc;strokeColor=#d6b656;" parent="1" vertex="1">
          <mxGeometry x="560" y="420" width="120" height="40" as="geometry" />
        </mxCell>
        <mxCell id="JFrzfRkV05_USLqRkSh5-40" style="edgeStyle=orthogonalEdgeStyle;rounded=0;orthogonalLoop=1;jettySize=auto;html=1;entryX=0;entryY=0.5;entryDx=0;entryDy=0;" parent="1" source="JFrzfRkV05_USLqRkSh5-38" target="JFrzfRkV05_USLqRkSh5-41" edge="1">
          <mxGeometry relative="1" as="geometry">
            <mxPoint x="1000" y="440" as="targetPoint" />
          </mxGeometry>
        </mxCell>
        <mxCell id="JFrzfRkV05_USLqRkSh5-38" value="podman" style="rounded=1;whiteSpace=wrap;html=1;fillColor=#dae8fc;strokeColor=#6c8ebf;" parent="1" vertex="1">
          <mxGeometry x="720" y="410" width="130" height="60" as="geometry" />
        </mxCell>
        <mxCell id="JFrzfRkV05_USLqRkSh5-47" value="" style="group;" parent="1" vertex="1" connectable="0">
          <mxGeometry x="890" y="420" width="140" height="60" as="geometry" />
        </mxCell>
        <mxCell id="JFrzfRkV05_USLqRkSh5-41" value="containers" style="rounded=1;whiteSpace=wrap;html=1;fillColor=#dae8fc;strokeColor=#6c8ebf;" parent="JFrzfRkV05_USLqRkSh5-47" vertex="1">
          <mxGeometry width="120" height="40" as="geometry" />
        </mxCell>
        <mxCell id="JFrzfRkV05_USLqRkSh5-44" value="containers" style="rounded=1;whiteSpace=wrap;html=1;fillColor=#dae8fc;strokeColor=#6c8ebf;" parent="JFrzfRkV05_USLqRkSh5-47" vertex="1">
          <mxGeometry x="10" y="10" width="120" height="40" as="geometry" />
        </mxCell>
        <mxCell id="JFrzfRkV05_USLqRkSh5-45" value="containers" style="rounded=1;whiteSpace=wrap;html=1;fillColor=#dae8fc;strokeColor=#6c8ebf;" parent="JFrzfRkV05_USLqRkSh5-47" vertex="1">
          <mxGeometry x="20" y="20" width="120" height="40" as="geometry" />
        </mxCell>
        <mxCell id="JFrzfRkV05_USLqRkSh5-48" value="Resource controller" style="rounded=1;whiteSpace=wrap;html=1;fillColor=#d5e8d4;strokeColor=#82b366;" parent="1" vertex="1">
          <mxGeometry x="465" y="150" width="100" height="40" as="geometry" />
        </mxCell>
        <mxCell id="JFrzfRkV05_USLqRkSh5-50" value="Network attachment controller" style="rounded=1;whiteSpace=wrap;html=1;fillColor=#d5e8d4;strokeColor=#82b366;" parent="1" vertex="1">
          <mxGeometry x="565" y="207.5" width="110" height="40" as="geometry" />
        </mxCell>
        <mxCell id="JFrzfRkV05_USLqRkSh5-53" value="" style="endArrow=none;dashed=1;html=1;dashPattern=1 3;strokeWidth=2;rounded=0;" parent="1" edge="1">
          <mxGeometry width="50" height="50" relative="1" as="geometry">
            <mxPoint x="300" y="500" as="sourcePoint" />
            <mxPoint x="300" y="100" as="targetPoint" />
          </mxGeometry>
        </mxCell>
        <mxCell id="JFrzfRkV05_USLqRkSh5-54" value="&lt;font color=&quot;#ff0000&quot; style=&quot;font-size: 14px;&quot;&gt;&lt;b&gt;Network Service API&lt;/b&gt;&lt;/font&gt;" style="edgeLabel;html=1;align=center;verticalAlign=middle;resizable=0;points=[];" parent="JFrzfRkV05_USLqRkSh5-53" vertex="1" connectable="0">
          <mxGeometry x="0.8769" relative="1" as="geometry">
            <mxPoint as="offset" />
          </mxGeometry>
        </mxCell>
        <mxCell id="JFrzfRkV05_USLqRkSh5-62" style="edgeStyle=orthogonalEdgeStyle;rounded=0;orthogonalLoop=1;jettySize=auto;html=1;entryX=0;entryY=0.5;entryDx=0;entryDy=0;startArrow=classic;startFill=1;endArrow=none;endFill=0;" parent="1" source="JFrzfRkV05_USLqRkSh5-55" target="JFrzfRkV05_USLqRkSh5-48" edge="1">
          <mxGeometry relative="1" as="geometry" />
        </mxCell>
        <mxCell id="JFrzfRkV05_USLqRkSh5-55" value="/api/v1/resources" style="rounded=1;whiteSpace=wrap;html=1;fillColor=#f8cecc;strokeColor=#b85450;" parent="1" vertex="1">
          <mxGeometry x="30" y="157.5" width="210" height="25" as="geometry" />
        </mxCell>
        <mxCell id="JFrzfRkV05_USLqRkSh5-59" style="edgeStyle=orthogonalEdgeStyle;rounded=0;orthogonalLoop=1;jettySize=auto;html=1;entryX=0;entryY=0.5;entryDx=0;entryDy=0;startArrow=none;startFill=0;" parent="1" source="JFrzfRkV05_USLqRkSh5-56" target="JFrzfRkV05_USLqRkSh5-35" edge="1">
          <mxGeometry relative="1" as="geometry" />
        </mxCell>
        <mxCell id="JFrzfRkV05_USLqRkSh5-56" value="/api/v1/config/networkattachments" style="rounded=1;whiteSpace=wrap;html=1;fillColor=#f8cecc;strokeColor=#b85450;" parent="1" vertex="1">
          <mxGeometry x="30" y="427.5" width="210" height="25" as="geometry" />
        </mxCell>
        <mxCell id="JFrzfRkV05_USLqRkSh5-61" style="edgeStyle=orthogonalEdgeStyle;rounded=0;orthogonalLoop=1;jettySize=auto;html=1;startArrow=classic;startFill=1;endArrow=none;endFill=0;" parent="1" source="JFrzfRkV05_USLqRkSh5-57" target="JFrzfRkV05_USLqRkSh5-50" edge="1">
          <mxGeometry relative="1" as="geometry" />
        </mxCell>
        <mxCell id="JFrzfRkV05_USLqRkSh5-57" value="/api/v1/networkattachments" style="rounded=1;whiteSpace=wrap;html=1;fillColor=#f8cecc;strokeColor=#b85450;" parent="1" vertex="1">
          <mxGeometry x="30" y="215" width="210" height="25" as="geometry" />
        </mxCell>
        <mxCell id="JFrzfRkV05_USLqRkSh5-60" style="edgeStyle=orthogonalEdgeStyle;rounded=0;orthogonalLoop=1;jettySize=auto;html=1;startArrow=none;startFill=0;" parent="1" source="JFrzfRkV05_USLqRkSh5-58" target="JFrzfRkV05_USLqRkSh5-28" edge="1">
          <mxGeometry relative="1" as="geometry" />
        </mxCell>
        <mxCell id="JFrzfRkV05_USLqRkSh5-58" value="/api/v1/config/resources" style="rounded=1;whiteSpace=wrap;html=1;fillColor=#f8cecc;strokeColor=#b85450;" parent="1" vertex="1">
          <mxGeometry x="30" y="327.5" width="210" height="25" as="geometry" />
        </mxCell>
        <mxCell id="JFrzfRkV05_USLqRkSh5-63" value="Network service API&lt;br&gt;endpoints" style="rounded=1;whiteSpace=wrap;html=1;fillColor=#f8cecc;strokeColor=#b85450;" parent="1" vertex="1">
          <mxGeometry x="950" y="30" width="120" height="30" as="geometry" />
        </mxCell>
        <mxCell id="JFrzfRkV05_USLqRkSh5-64" value="VF operator" style="rounded=1;whiteSpace=wrap;html=1;fillColor=#d5e8d4;strokeColor=#82b366;" parent="1" vertex="1">
          <mxGeometry x="950" y="60" width="120" height="30" as="geometry" />
        </mxCell>
        <mxCell id="JFrzfRkV05_USLqRkSh5-65" value="File system" style="rounded=1;whiteSpace=wrap;html=1;fillColor=#fff2cc;strokeColor=#d6b656;" parent="1" vertex="1">
          <mxGeometry x="950" y="90" width="120" height="30" as="geometry" />
        </mxCell>
        <mxCell id="JFrzfRkV05_USLqRkSh5-66" value="Container runtime" style="rounded=1;whiteSpace=wrap;html=1;fillColor=#dae8fc;strokeColor=#6c8ebf;" parent="1" vertex="1">
          <mxGeometry x="950" y="120" width="120" height="30" as="geometry" />
        </mxCell>
        <mxCell id="JFrzfRkV05_USLqRkSh5-68" value="Legend" style="text;html=1;strokeColor=none;fillColor=none;align=center;verticalAlign=middle;whiteSpace=wrap;rounded=0;" parent="1" vertex="1">
          <mxGeometry x="880" y="30" width="60" height="30" as="geometry" />
        </mxCell>
        <mxCell id="OPV_PR6AY8vFrdX1OH_D-3" style="edgeStyle=orthogonalEdgeStyle;rounded=0;orthogonalLoop=1;jettySize=auto;html=1;entryX=0.5;entryY=0;entryDx=0;entryDy=0;" edge="1" parent="1" source="OPV_PR6AY8vFrdX1OH_D-1" target="JFrzfRkV05_USLqRkSh5-38">
          <mxGeometry relative="1" as="geometry" />
        </mxCell>
        <mxCell id="OPV_PR6AY8vFrdX1OH_D-1" value="/etc/cdi" style="rounded=1;whiteSpace=wrap;html=1;fillColor=#fff2cc;strokeColor=#d6b656;" vertex="1" parent="1">
          <mxGeometry x="477.5" y="370" width="75" height="40" as="geometry" />
        </mxCell>
      </root>
    </mxGraphModel>
  </diagram>
</mxfile>
